<svg width="316" height="416" viewBox="0 0 316 416" fill="none" xmlns="http://www.w3.org/2000/svg">
<path d="M291.298 131.23C291.05 131.23 290.819 131.106 290.6 130.865C289.948 130.129 289.247 129.218 288.512 128.139C287.775 127.053 287.162 125.937 286.665 124.778C286.517 124.501 286.434 124.203 286.424 123.889C286.42 123.787 286.448 123.525 286.5 123.102L286.762 121.527C287.029 120.128 287.191 119.063 287.232 118.327L287.445 115.28C283.924 115.768 281.003 116.315 278.674 116.906L278.464 116.957H278.303C278.165 116.957 277.965 116.884 277.72 116.745C276.25 115.732 274.974 114.66 273.887 113.545C272.8 112.422 271.794 111.11 270.869 109.609C270.725 109.434 270.645 109.222 270.637 108.982C270.629 108.741 270.672 108.508 270.775 108.296C270.97 107.808 271.118 107.188 271.209 106.43C271.308 105.68 271.341 104.885 271.313 104.039C271.301 103.689 271.323 103.456 271.37 103.332C271.417 103.208 271.531 103.15 271.706 103.15C272.268 103.15 273.041 103.376 274.041 103.835C278.138 102.888 282.56 102.071 287.3 101.371C287.233 99.3448 287.09 97.2089 286.877 94.971C285.873 93.2579 284.688 91.8437 283.324 90.7211C283.069 90.5097 282.946 90.3202 282.94 90.1452C282.933 89.9338 283.118 89.8099 283.504 89.7808C284.479 89.7079 285.237 89.6787 285.762 89.6787C288.001 89.6787 289.883 89.9047 291.401 90.3639C291.644 90.4368 291.829 90.5243 291.934 90.6264C292.04 90.7284 292.154 90.8742 292.262 91.0492C292.632 91.6469 292.97 92.3978 293.285 93.309C293.324 93.3819 293.341 93.4839 293.346 93.6224C293.352 93.7974 293.307 93.9869 293.205 94.1983C292.808 95.0002 292.478 95.6125 292.215 96.0353C292.149 97.1214 292.091 98.696 292.057 100.759C295.857 100.307 298.949 100.074 301.327 100.074C301.713 100.074 301.991 100.103 302.168 100.154C302.345 100.205 302.561 100.336 302.808 100.548C305.139 102.224 306.726 103.66 307.575 104.848C307.719 105.023 307.798 105.198 307.803 105.373C307.809 105.548 307.713 105.723 307.507 105.898C306.515 106.562 305.459 107.05 304.354 107.371C304.123 107.896 303.649 108.785 302.918 110.046C303.691 111.169 304.293 112.371 304.715 113.669C304.755 113.771 304.774 113.917 304.78 114.092C304.788 114.34 304.616 114.442 304.265 114.405C303.489 114.332 302.3 114.303 300.688 114.303C298.098 114.303 295.317 114.442 292.35 114.726C292.403 116.337 292.521 118.786 292.695 122.074C292.843 124.348 293.187 126.834 293.728 129.524C293.767 129.597 293.785 129.699 293.79 129.837C293.796 130.012 293.678 130.202 293.444 130.413C293.24 130.625 292.946 130.8 292.572 130.938C292.19 131.077 291.828 131.179 291.481 131.252H291.269L291.298 131.23ZM278.053 111.81C280.907 111.212 284.069 110.673 287.554 110.185L287.53 106.35C283.906 106.839 280.491 107.436 277.297 108.136L278.046 111.81H278.053ZM296.768 109.135L297.866 109.033C298.452 107.772 298.957 106.496 299.366 105.198C297.478 105.235 295.07 105.424 292.135 105.774C292.125 106.576 292.152 107.837 292.209 109.55C294.164 109.339 295.684 109.2 296.761 109.128L296.768 109.135Z" fill="black"/>
<path d="M270.813 176.86C270.633 176.86 270.492 176.714 270.382 176.415C270.208 175.717 269.891 174.973 269.425 174.175C268.967 173.385 268.537 172.734 268.144 172.212C267.929 171.921 267.825 171.714 267.826 171.606C267.828 171.46 267.957 171.253 268.206 171C268.751 170.371 269.439 169.773 270.276 169.206C271.106 168.638 271.942 168.201 272.769 167.91C272.874 167.871 273.002 167.856 273.144 167.856C273.324 167.856 273.413 168.025 273.41 168.354C273.404 169.129 273.503 169.904 273.714 170.671C276.276 170.08 279.048 169.512 282.045 168.96C281.766 168.301 281.567 167.802 281.465 167.472L279.248 167.971C278.925 168.048 278.58 168.063 278.22 168.025C277.576 167.948 276.925 167.787 276.282 167.526C275.998 167.38 275.85 167.158 275.852 166.867C275.862 165.724 275.705 164.75 275.389 163.937C275.316 163.753 275.309 163.63 275.362 163.576C275.415 163.523 275.513 163.492 275.663 163.492C276.382 163.569 277.206 163.714 278.141 163.937L280.305 163.492L280.204 163.047C280.205 162.863 280.312 162.694 280.53 162.549C280.855 162.219 281.255 161.92 281.722 161.667L281.234 161.774C280.911 161.881 280.55 161.92 280.153 161.881C279.33 161.697 278.701 161.513 278.268 161.329C277.984 161.184 277.836 160.961 277.838 160.67C277.771 159.673 277.622 158.699 277.375 157.74C277.301 157.556 277.295 157.433 277.348 157.38C277.401 157.326 277.498 157.295 277.648 157.295C278.548 157.372 279.432 157.518 280.292 157.74C281.231 157.556 283.049 157.203 285.753 156.689C285.537 156.582 285.216 156.375 284.783 156.083C284.567 155.976 284.389 155.7 284.25 155.255L277.756 156.965C276.711 157.295 275.733 157.702 274.829 158.177C274.753 158.254 274.648 158.285 274.505 158.285C274.363 158.285 274.236 158.177 274.133 157.955C273.279 156.889 272.585 155.562 272.058 153.982L271.957 153.537C271.958 153.391 272.087 153.207 272.336 152.985C272.918 152.433 274.004 151.735 275.594 150.884C275.812 150.807 275.939 150.776 275.969 150.776C276.074 150.776 276.133 150.922 276.131 151.221C276.125 151.881 276.195 152.509 276.333 153.1L283.259 151.773L282.786 149.894L280.805 148.238C280.589 148.054 280.486 147.854 280.488 147.632C280.49 147.34 280.568 147.034 280.713 146.719C280.858 146.405 281.025 146.136 281.207 145.921C281.313 145.776 281.426 145.676 281.532 145.615C281.637 145.553 281.802 145.553 282.019 145.584C284.176 145.952 285.756 146.32 286.765 146.688C287.049 146.796 287.265 146.965 287.406 147.187C287.621 147.478 287.812 147.923 287.988 148.514C288.025 148.59 288.039 148.682 288.038 148.79C288.037 148.897 287.983 149.051 287.869 149.235C287.793 149.342 287.695 149.472 287.566 149.618C287.437 149.764 287.323 149.948 287.209 150.17C287.208 150.316 287.243 150.577 287.308 150.945C288.105 150.723 288.878 150.561 289.637 150.446H289.742C290.102 150.446 290.19 150.615 290.008 150.945C289.747 151.681 289.312 152.586 288.688 153.652C288.543 153.944 288.249 154.151 287.821 154.258L287.603 154.312C287.639 154.419 287.653 154.55 287.652 154.695L287.7 155.194C287.699 155.301 287.66 155.508 287.59 155.8C287.552 155.876 287.514 155.968 287.483 156.076C287.445 156.183 287.391 156.298 287.315 156.406C290.237 155.93 292.182 155.616 293.158 155.47L293.211 155.362L294.253 153.599L293.93 153.652H293.713C293.495 153.652 293.316 153.576 293.175 153.43C292.385 152.732 291.71 151.904 291.14 150.945C291.036 150.838 290.977 150.723 290.978 150.615C290.979 150.508 291.107 150.416 291.355 150.339C292.362 150.117 293.954 149.802 296.118 149.403L296.288 148.744L294.523 146.259C294.382 146.075 294.309 145.891 294.31 145.707L294.419 145.262C294.747 144.633 295.149 144.066 295.618 143.552C295.762 143.406 295.89 143.322 295.995 143.306C296.1 143.291 296.28 143.299 296.535 143.337C297.358 143.521 298.255 143.858 299.226 144.357C300.197 144.855 301.003 145.362 301.644 145.875C301.927 146.06 302.076 146.259 302.074 146.481C302.073 146.589 302.034 146.757 301.965 146.98C301.598 147.823 301.361 148.345 301.247 148.529L303.245 148.199C303.32 148.161 303.425 148.146 303.568 148.146C303.785 148.146 304.017 148.238 304.27 148.422C305.561 149.265 306.377 150.339 306.726 151.627C306.763 151.704 306.777 151.812 306.776 151.957C306.774 152.18 306.594 152.287 306.234 152.287C303.931 152.325 301.477 152.509 298.887 152.839C298.56 153.353 298.264 153.76 298.014 154.051C297.725 154.527 297.453 154.826 297.197 154.933C299.104 154.711 300.403 154.565 301.086 154.488H301.356C301.573 154.488 301.753 154.527 301.895 154.596C302.037 154.672 302.178 154.78 302.327 154.925C303.296 155.7 303.971 156.544 304.361 157.464L304.463 157.794C304.462 158.016 304.281 158.146 303.92 158.177L299.596 158.676C300.352 158.86 300.98 159.097 301.48 159.397C301.622 159.473 301.719 159.565 301.778 159.673C301.83 159.78 301.836 159.933 301.804 160.117L303.103 160.01H303.373C303.628 160.01 303.927 160.14 304.285 160.394C305.283 161.207 305.981 162.065 306.371 162.986L306.473 163.316C306.471 163.538 306.29 163.668 305.93 163.699C303.333 163.96 301.591 164.144 300.691 164.251L299.864 166.238C302.102 165.946 304.203 165.724 306.185 165.578H306.402C306.762 165.578 307.083 165.708 307.374 165.962C308.879 167.173 309.873 168.5 310.364 169.934C310.4 170.042 310.414 170.172 310.413 170.318C310.411 170.609 310.215 170.724 309.818 170.648C308.379 170.463 306.835 170.371 305.178 170.371C303.843 170.371 302.102 170.463 299.941 170.648C297.599 170.832 295.385 171.069 293.29 171.368L293.276 173.079C296.842 172.603 300.123 172.235 303.11 171.974H303.432C303.755 171.974 304.024 172.082 304.239 172.304C304.954 172.964 305.556 173.585 306.062 174.152C306.559 174.728 306.937 175.357 307.179 176.054C307.252 176.2 307.281 176.369 307.279 176.553C307.278 176.699 307.232 176.791 307.142 176.829C307.052 176.867 306.902 176.867 306.685 176.829C305.568 176.722 304.181 176.66 302.531 176.66C301.774 176.66 300.641 176.699 299.125 176.768C296.747 176.952 294.788 177.136 293.234 177.32L293.269 179.36C293.299 180.357 293.379 181.576 293.509 183.034C293.64 184.491 293.809 185.802 294.017 186.983L294.067 187.313C294.064 187.643 293.957 187.881 293.738 188.034C293.519 188.218 293.18 188.394 292.706 188.555C292.24 188.724 291.842 188.839 291.519 188.916H291.301C291.159 188.916 291.031 188.878 290.927 188.809C290.823 188.732 290.674 188.586 290.496 188.364C289.925 187.52 289.393 186.531 288.9 185.411C288.407 184.291 288.018 183.21 287.741 182.182C287.602 181.776 287.53 181.446 287.532 181.185C287.532 181.147 287.572 180.909 287.643 180.464C287.72 180.173 287.847 179.375 288.038 178.087C286.776 178.309 285.499 178.585 284.198 178.915C283.116 179.176 281.929 179.513 280.628 179.935C279.327 180.357 278.228 180.756 277.325 181.124C277.182 181.201 277.07 181.231 277.002 181.231C276.86 181.231 276.696 181.063 276.519 180.733C276.269 180.035 276.004 179.444 275.723 178.969C275.442 178.493 275.064 177.941 274.604 177.312C274.463 177.128 274.39 176.959 274.391 176.814C274.392 176.63 274.469 176.446 274.613 176.261C275.014 175.817 275.596 175.303 276.351 174.712C274.186 175.341 272.508 175.985 271.31 176.645C271.092 176.752 270.911 176.814 270.769 176.814L270.813 176.86ZM279.41 175.702C282.04 175.073 285.105 174.452 288.605 173.823C288.611 173.125 288.63 172.55 288.672 172.112C285.39 172.626 282.16 173.293 278.988 174.099C279.059 174.651 279.197 175.188 279.41 175.702ZM284.876 161.237L285.03 162.618C285.713 162.472 286.998 162.234 288.868 161.897L288.881 160.294C288.085 160.401 286.733 160.662 284.825 161.068C284.862 161.107 284.876 161.161 284.876 161.237ZM285.733 168.308C286.416 168.163 287.445 167.979 288.812 167.756L288.826 166.046C287.963 166.153 286.844 166.36 285.476 166.652L285.733 168.308ZM292.985 160.079C293.202 160.156 293.344 160.225 293.418 160.302C293.493 160.378 293.521 160.539 293.519 160.8L293.516 161.184L297.082 160.685C297.123 160.279 297.143 159.711 297.149 158.975L291.742 159.803C292.102 159.841 292.514 159.933 292.985 160.079ZM296.276 166.705L296.614 164.826C295.93 164.903 294.864 165.049 293.422 165.271L293.407 167.097C293.986 166.989 294.939 166.859 296.276 166.713L296.276 166.705Z" fill="black"/>
<path d="M305.556 220.454L303.648 215.254C303.408 214.423 302.737 214.299 302.018 214.471C301.299 214.643 285.739 218.189 285.739 218.189C285.557 218.227 285.47 217.988 285.624 217.883C290.791 214.203 296.534 210.81 298.375 210.112C298.547 210.045 298.643 209.864 298.595 209.691C298.423 209.156 298.039 207.952 297.512 206.566C296.994 205.19 296.371 204.052 296.035 203.46C295.892 203.201 295.575 203.087 295.278 203.182C293.341 203.775 286.266 205.926 283.869 206.27C281.913 206.556 280.619 206.27 280.015 206.088C279.881 206.05 279.756 206.184 279.814 206.308L280.562 207.761C280.619 207.866 280.658 207.99 280.667 208.114L280.964 210.504C280.974 210.609 281.022 210.695 281.099 210.772C281.444 211.097 282.546 211.995 283.764 211.613C285.643 211.03 287.445 210.131 290.657 209.051C290.753 209.022 290.82 209.137 290.753 209.204C286.966 212.779 278.989 217.969 277.235 218.695C275.596 219.364 274.829 219.078 273.477 218.925C273.256 218.896 273.055 219.106 273.103 219.317C273.323 220.272 274.272 223.121 275.001 224.612C275.596 225.826 276.641 226.026 277.916 225.376C280.696 223.962 282.824 223.121 286.64 222.146C286.841 222.098 286.966 222.327 286.803 222.471C284.195 224.803 283.169 227.795 283.371 230.997C283.716 236.531 291.031 241.09 301.011 239.379C301.155 239.351 301.26 239.236 301.27 239.093C301.337 237.458 299.391 234.619 299.247 234.409C298.825 233.816 298.624 233.73 297.982 233.855C297.311 233.988 293.6 234.457 291.482 233.205C287.474 230.825 288.538 226.801 290.762 224.535C292.066 223.207 292.843 222.71 294.06 222.155C295.278 221.601 297.541 220.808 299.209 220.53C302.018 220.062 303.935 220.502 304.99 220.97C305.325 221.114 305.69 220.779 305.565 220.444L305.556 220.454Z" fill="black"/>
<path d="M287.596 266.462L287.503 268.591C287.503 268.591 292.538 267.153 297.433 266.508C301.459 265.976 304.701 265.677 305.728 265.583C305.934 265.565 306.13 265.696 306.223 265.91L307.802 269.712C307.905 269.965 307.755 270.245 307.503 270.226C305.878 270.142 300.787 269.965 296.985 270.805C292.547 271.786 289.773 272.431 286.279 274.448C286.083 274.561 285.831 274.514 285.663 274.318C284.532 272.972 283.626 270.684 283.178 269.423C282.991 268.909 283.168 268.339 283.579 268.087L286.998 266.022C287.26 265.864 287.596 266.116 287.587 266.452L287.596 266.462Z" fill="black"/>
<path d="M307.458 287.499C307.43 287.368 307.402 287.247 307.318 287.144C306.103 285.789 303.581 283.715 300.723 282.277C300.592 282.211 300.508 282.071 300.517 281.931C300.62 278.578 299.938 265.565 299.611 262.613C299.574 262.286 299.695 261.969 299.891 261.707L300.592 260.754C300.713 260.595 300.732 260.381 300.639 260.194C300.461 259.839 300.143 259.045 299.779 258.428C299.49 257.952 299.022 257.606 298.471 257.494C296.78 257.139 292.848 256.962 291.755 256.906C291.615 256.906 291.531 257.064 291.615 257.176C291.615 257.176 294.324 260.409 294.669 261.062C295.174 262.015 295.575 264.444 295.716 266.275C295.958 269.629 296.043 276.952 295.744 279.829C295.725 279.988 295.575 280.082 295.426 280.016C294.697 279.699 292.652 279.073 289.578 279.25C283.73 279.587 282.488 286.77 287.224 289.703C291.4 292.282 297.257 291.488 299.714 287.63C299.751 287.573 299.817 287.536 299.882 287.527C301.096 287.48 304.992 291.45 306.262 293.038C306.449 293.281 306.645 293.272 306.767 292.945C307.122 291.992 307.617 288.283 307.467 287.48L307.458 287.499ZM292.437 286.602C290.185 286.621 289.279 285.612 289.204 284.911C289.13 284.267 289.373 282.959 291.792 283.118C293.838 283.248 295.108 284.192 295.445 284.481C295.51 284.537 295.538 284.612 295.519 284.696C295.426 285.145 294.922 286.583 292.437 286.611V286.602Z" fill="black"/>
<path d="M273.073 258.008C272.839 257.578 272.933 257.195 273.661 257.429C274.689 257.756 279.238 258.914 280.453 259.914C280.92 260.297 280.966 262.193 280.873 262.483C280.686 263.043 279.687 264.211 279.322 264.837C278.416 267.452 277.968 270.899 277.865 273.235C277.687 277.569 278.07 282.034 278.51 283.576C278.538 283.669 278.78 283.697 278.836 283.632C279.182 283.267 281.732 277.877 282.34 276.103C282.368 276.009 282.545 276.009 282.564 276.103C283.498 281.408 281.359 289.358 279.332 291.88C279.257 291.974 279.098 292.011 278.986 291.936C275.502 289.862 273.465 285.407 273.362 278.634C273.241 271.124 274.371 263.594 274.437 262.94C274.502 262.287 274.194 261.053 273.941 260.334C273.708 259.671 273.306 258.429 273.073 257.999V258.008Z" fill="black"/>
<path d="M303.508 256.84C304.2 257.382 305.75 258.437 307.693 258.83C308.282 258.942 308.721 259.418 308.796 260.016C308.917 261.062 308.964 262.193 308.973 262.94C308.973 263.351 308.553 263.631 308.179 263.444C306.535 262.66 302.855 260.623 303.06 257.036C303.069 256.812 303.331 256.7 303.508 256.84Z" fill="black"/>
<path d="M306.86 253.15C306.73 253.066 306.562 253.16 306.562 253.318C306.599 254.168 306.795 256.261 307.879 257.223C309.028 258.241 311.288 259.633 312.008 260.072C312.12 260.138 312.269 260.072 312.297 259.951C312.465 259.185 312.904 256.868 312.297 255.626C312.232 255.486 312.092 255.402 311.942 255.392C310.345 255.299 307.739 253.72 306.86 253.15Z" fill="black"/>
<g clip-path="url(#clip0_2640_76557)">
<path d="M19.3076 131.418C18.8596 131.418 18.5223 131.384 18.2959 131.321C16.6579 130.968 15.3716 130.435 14.4418 129.723C14.2154 129.593 14.1046 129.447 14.1046 129.288C14.1046 129.157 14.2347 129.045 14.49 128.949C16.287 128.334 17.7034 127.835 18.7295 127.448C19.7557 127.06 20.7384 126.61 21.6682 126.092C22.5017 124.218 23.3062 122.136 24.0771 119.845C24.8479 117.555 25.426 115.599 25.8114 113.986C25.3296 112.761 24.8479 111.807 24.3661 111.13C23.4363 111.289 22.2608 111.517 20.8493 111.807L20.1748 113.744C18.4067 118.911 16.8506 123.235 15.5017 126.721C15.4054 126.978 15.2945 127.172 15.1645 127.302C15.0344 127.433 14.861 127.578 14.6345 127.738C13.4446 128.576 11.744 129.176 9.52786 129.53L8.8534 129.578C8.72332 129.578 8.40536 129.544 7.88988 129.481C6.05918 129.225 4.51755 128.644 3.26497 127.738C3.03854 127.578 2.92773 127.433 2.92773 127.302C2.92773 127.109 3.03854 126.978 3.26497 126.915C5.12938 126.237 6.69511 125.646 7.96214 125.148C9.22917 124.649 10.2842 124.14 11.1177 123.622C12.6593 120.523 14.1865 117.037 15.6944 113.163C13.8974 113.778 12.3365 114.437 11.0213 115.149C10.925 115.211 10.7949 115.245 10.6359 115.245C10.4095 115.245 10.265 115.115 10.2023 114.858C10.0096 114.146 9.72057 113.468 9.33516 112.824C8.94975 112.18 8.53062 111.628 8.08258 111.178C7.85615 110.887 7.74535 110.694 7.74535 110.597C7.74535 110.466 7.85615 110.292 8.08258 110.064C9.36888 108.771 10.7323 107.837 12.1776 107.256L12.563 107.159C12.693 107.159 12.7557 107.29 12.7557 107.546C12.7557 107.837 12.7894 108.166 12.852 108.539C12.9146 108.912 13.011 109.207 13.1411 109.435L15.9835 108.757C16.7543 108.597 17.2698 108.481 17.5251 108.418L18.055 106.965L17.4287 107.159C16.5953 107.677 15.7908 108.079 15.0199 108.37C14.9573 108.403 14.861 108.418 14.7309 108.418C14.5719 108.418 14.4274 108.355 14.2973 108.224C13.7529 107.774 13.2519 107.207 12.8038 106.53C12.3558 105.852 12.0186 105.188 11.7921 104.544C11.7584 104.447 11.744 104.336 11.744 104.205C11.744 103.881 11.9029 103.707 12.2257 103.673L14.7309 103.092C14.9236 102.351 15.0199 101.508 15.0199 100.574C14.6972 99.9927 14.0227 99.184 12.9965 98.1527C12.8038 97.9929 12.7171 97.8525 12.7316 97.7411C12.746 97.6297 12.852 97.5571 13.0447 97.5232C14.6201 97.2666 16.1617 97.1842 17.6696 97.2811C17.8961 97.315 18.0647 97.3634 18.1755 97.4264C18.2863 97.4893 18.426 97.62 18.585 97.8137C18.9704 98.2979 19.2594 98.8645 19.4521 99.5085L19.5003 99.799C19.5003 99.8619 19.4666 100.027 19.404 100.283C19.0812 101.189 18.8259 101.867 18.6332 102.317L24.4143 101.348L24.0771 101.203C23.8217 101.043 23.6916 100.767 23.6916 100.38C23.6916 99.8329 23.6676 99.1695 23.6194 98.3948C23.5712 97.62 23.5134 97.039 23.4508 96.6516C22.7426 95.78 21.7501 94.9714 20.4638 94.2306C20.2374 94.0708 20.1266 93.94 20.1266 93.8432C20.1266 93.7124 20.2374 93.6011 20.4638 93.5042C21.0757 93.2767 21.8513 93.0588 22.8004 92.8505C23.7495 92.6423 24.5251 92.5019 25.1369 92.439H25.426C25.715 92.439 25.9704 92.5213 26.1968 92.6811C27.1266 93.296 27.8637 94.0223 28.4129 94.86C28.5093 94.9908 28.5574 95.1167 28.5574 95.2474C28.5574 95.3442 28.5093 95.475 28.4129 95.6348L27.353 97.1842C27.2567 98.0219 27.1266 99.3003 26.9676 101.01C29.2801 100.719 31.3372 100.477 33.1342 100.283H33.4232L33.4714 98.9274C33.086 98.1527 32.3489 97.2666 31.2553 96.2642C31.0963 96.1045 31.0144 95.9737 31.0144 95.8769C31.0144 95.78 31.1445 95.6977 31.3998 95.6348C32.1706 95.5379 33.0234 95.4895 33.9532 95.4895C35.0468 95.4895 35.8802 95.5379 36.4583 95.6348C36.7137 95.6687 36.9738 95.8139 37.2291 96.0706C37.6483 96.5887 37.9662 97.1988 38.1927 97.9106C38.2553 98.1381 38.2408 98.3464 38.1445 98.54C37.9518 98.9274 37.7109 99.3003 37.4218 99.6537L36.5547 104.69C36.5209 104.98 36.4439 105.208 36.3138 105.367L36.2656 105.416H36.4583C36.7811 105.416 37.0846 105.547 37.3737 105.803C38.9779 106.965 40.0715 108.224 40.6496 109.58C40.7123 109.774 40.746 109.885 40.746 109.919C40.746 110.147 40.5196 110.21 40.0715 110.113C38.9779 110.016 37.8217 109.967 36.6029 109.967C34.9649 109.967 33.375 110.03 31.8334 110.161C30.5808 110.258 29.2656 110.403 27.883 110.597C28.3021 110.66 28.7839 110.776 29.3283 110.936C29.521 110.999 29.6655 111.071 29.7618 111.154C29.8582 111.236 29.9545 111.372 30.0509 111.565C30.34 112.146 30.5471 112.79 30.6772 113.502C30.7109 113.599 30.7254 113.71 30.7254 113.841C30.7254 113.972 30.6627 114.098 30.5327 114.229C30.2436 114.582 29.9208 114.906 29.5691 115.197C29.2174 116.262 28.8465 117.521 28.4611 118.974C28.7164 119.037 29.0729 119.167 29.521 119.361C31.2216 118.039 32.4597 116.858 33.2305 115.826C33.1968 115.405 33.0956 114.945 32.9174 114.446C32.7391 113.948 32.5416 113.517 32.3152 113.163C32.2525 112.97 32.2188 112.858 32.2188 112.824C32.2188 112.665 32.3296 112.597 32.5561 112.631C34.2278 112.824 35.702 113.178 36.9883 113.696C37.1472 113.759 37.2532 113.831 37.3014 113.914C37.3496 113.996 37.4074 114.132 37.47 114.325C37.6001 114.679 37.6772 115.158 37.7109 115.754C37.7446 116.349 37.7254 116.906 37.6627 117.424C37.629 117.778 37.4845 118.039 37.2291 118.199C35.7501 119.134 33.905 120.025 31.6889 120.862C32.3971 121.477 33.0523 122.16 33.6641 122.92C34.2759 123.68 35.0275 124.639 35.9284 125.801L36.5065 126.576C39.8788 127.123 42.2876 127.627 43.7329 128.077C43.9256 128.111 44.022 128.208 44.022 128.368C44.022 128.464 43.9256 128.61 43.7329 128.803C42.6104 129.738 41.2422 130.513 39.6379 131.128C39.3152 131.224 38.8527 131.307 38.2408 131.37C37.311 131.404 36.3716 131.36 35.4225 131.249C34.4735 131.137 33.7267 130.948 33.1823 130.692C32.7969 130.532 32.5416 130.377 32.4115 130.232C32.2814 130.086 32.1369 129.806 31.9779 129.384C30.8843 126.576 29.4246 124.106 27.5939 121.976C27.4012 122.62 27.0013 123.995 26.3895 126.092C26.0041 127.317 25.7777 128.062 25.715 128.319C25.5561 128.837 25.4164 129.191 25.3055 129.384C25.1947 129.578 24.9587 129.772 24.607 129.965C23.5134 130.643 22.0392 131.113 20.1748 131.37C19.9821 131.404 19.693 131.418 19.3076 131.418ZM18.6813 119.119C18.6813 118.829 18.8114 118.62 19.0667 118.49C20.6084 117.424 21.9091 115.909 22.969 113.938C23.128 113.647 23.2918 113.647 23.4508 113.938C23.8025 114.485 24.0289 115.086 24.1252 115.73L24.1734 116.165C24.1734 116.296 24.1397 116.49 24.0771 116.746C23.5327 119.23 22.5499 121.409 21.1383 123.283C21.0082 123.477 20.8637 123.574 20.7047 123.574C20.5457 123.574 20.3819 123.462 20.223 123.235C19.4521 122.107 18.9367 120.799 18.6813 119.313V119.119ZM22.0055 106.626C22.2319 106.757 22.3764 106.868 22.4391 106.965C22.5017 107.062 22.5017 107.222 22.4391 107.45C25.3923 106.868 29.2656 106.273 34.0495 105.658L33.3269 104.786C33.1679 104.593 33.086 104.384 33.086 104.157C28.3021 104.641 24.236 105.319 20.8974 106.191L22.0055 106.626Z" fill="black"/>
<path d="M10.5111 183.926C8.79215 183.49 7.05918 182.661 5.31216 181.443C5.03114 181.256 4.89062 181.069 4.89062 180.881C4.89062 180.727 5.04519 180.6 5.359 180.507C9.668 179.724 12.9138 178.774 15.1011 177.65C16.1924 175.743 17.3493 173.233 18.567 170.109C19.7848 166.985 20.8527 163.889 21.7754 160.812C22.6981 157.734 23.2835 155.355 23.5318 153.669C22.7496 152.17 21.6911 150.657 20.3468 149.126C20.1267 148.906 20.019 148.69 20.019 148.47C20.019 148.283 20.1735 148.189 20.4873 148.189C21.7051 148.189 23.0493 148.297 24.5153 148.517C25.9813 148.737 27.0773 148.985 27.7939 149.266C28.1077 149.36 28.37 149.608 28.5901 150.016C28.9976 150.765 29.2927 151.641 29.4801 152.639C29.5128 152.793 29.5269 152.966 29.5269 153.154C29.5269 153.308 29.466 153.468 29.3395 153.622C29.0257 154.123 28.6042 154.606 28.0749 155.074C27.6394 156.793 26.5621 160.521 24.8432 166.268C26.1874 165.767 27.4333 165.168 28.5901 164.465C29.747 163.762 30.6369 163.022 31.2599 162.24C31.2926 161.898 31.2271 161.406 31.0725 160.765C30.9179 160.123 30.7306 159.585 30.5105 159.149C30.4496 159.022 30.4168 158.929 30.4168 158.868C30.4168 158.713 30.5245 158.648 30.7447 158.681C32.7727 158.962 34.4916 159.524 35.8967 160.367C36.0841 160.46 36.2012 160.545 36.248 160.624C36.2948 160.704 36.3323 160.835 36.3651 161.022C36.426 161.524 36.4588 161.959 36.4588 162.334C36.4588 163.331 36.3791 164.175 36.2246 164.863C36.1637 165.05 36.0934 165.205 36.0138 165.331C35.9342 165.458 35.8171 165.552 35.6625 165.612C34.412 166.142 33.0303 166.619 31.5175 167.041C30.0046 167.463 28.651 167.781 27.4661 168.001L27.8408 168.235C28.4356 168.61 28.904 168.971 29.2459 169.313C30.4636 170.53 31.7423 171.945 33.0865 173.551C34.4307 175.158 35.6298 176.727 36.693 178.258C37.9716 178.446 39.536 178.713 41.3767 179.055C43.2173 179.397 44.7021 179.696 45.8262 179.945C46.0744 179.977 46.2009 180.085 46.2009 180.272C46.2009 180.46 46.0931 180.647 45.873 180.834C44.3742 182.113 42.5757 183.129 40.4867 183.879C40.0793 184.066 39.6109 184.16 39.0816 184.16C36.0841 184.16 33.8687 183.893 32.4308 183.364C32.0561 183.237 31.7891 183.073 31.6346 182.872C31.48 182.67 31.3067 182.333 31.1193 181.865C29.9953 179.148 28.8759 176.816 27.7705 174.863C26.6605 172.91 25.3912 171.046 23.9533 169.266C22.4545 174.324 21.3445 178.132 20.6279 180.694C20.4077 181.476 20.2063 181.996 20.019 182.263C19.8316 182.53 19.4897 182.769 18.9886 182.989C18.1783 183.331 17.0589 183.621 15.6397 183.855C14.2206 184.09 13.073 184.207 12.1972 184.207C11.7288 184.207 11.1668 184.113 10.5111 183.926ZM12.9466 165.331C12.9466 165.205 12.9794 165.083 13.0403 164.957C13.1012 164.83 13.1948 164.755 13.3213 164.723C14.2908 164.254 15.2416 163.575 16.1783 162.685C17.1151 161.795 17.8317 160.849 18.3328 159.852C18.4593 159.631 18.567 159.524 18.6607 159.524C18.7544 159.524 18.8481 159.664 18.9417 159.945C19.1291 160.727 19.2555 161.43 19.3164 162.053V162.381C19.3164 162.816 19.2696 163.271 19.1759 163.739C18.923 164.83 18.4734 166.09 17.8176 167.509C17.1619 168.929 16.539 169.921 15.9442 170.484C15.8177 170.671 15.6631 170.765 15.4758 170.765C15.3212 170.765 15.1479 170.657 14.9606 170.437C14.525 169.907 14.1035 169.116 13.696 168.071C13.2885 167.027 13.0543 166.174 12.9934 165.519L12.9466 165.331Z" fill="black"/>
<path d="M8.8397 206.399C8.69704 206.27 8.79214 206.039 8.98235 206.039C10.538 206.059 14.9127 206.127 15.6056 206.386C16.448 206.698 17.399 208.525 17.2496 209.497C17.1001 210.468 16.645 210.821 16.4412 211.283C16.2374 211.745 15.198 216.283 14.8652 217.757C14.8244 217.934 15.0214 218.076 15.1777 217.975C15.66 217.669 16.4208 217.112 16.5634 216.514C16.7197 215.862 16.5023 214.544 16.38 213.899C16.3461 213.736 16.5091 213.607 16.6653 213.668L19.9872 215.054C20.0619 215.087 20.1094 215.155 20.1162 215.237L20.2453 218.491C20.2453 218.566 20.2113 218.633 20.1502 218.674C19.7019 218.953 17.8881 220.087 17.0797 220.386C16.3936 220.637 15.069 221.14 14.4236 221.385C14.2674 221.446 14.247 221.656 14.3829 221.752C15.3747 222.404 18.2278 224.306 18.6897 224.937C19.2467 225.705 19.6 229.604 19.1109 229.93C18.6218 230.256 15.8638 228.015 15.3747 227.295C15.0214 226.772 14.3489 225.549 14.0025 224.917C13.9413 224.802 13.7647 224.842 13.7579 224.971C13.6696 226.181 13.3843 229.434 12.8544 230.073C11.6181 231.568 8.18756 232.104 6.85611 232.104C5.7896 232.104 3.28973 230.786 2.34549 230.27C2.19605 230.189 2.20284 229.964 2.36587 229.896C3.73808 229.326 7.84111 227.777 8.9348 226.412C10.0285 225.046 11.6113 219.102 11.7607 217.234C11.9102 215.366 12.7186 210.957 12.2974 209.999C11.9645 209.245 9.77714 207.228 8.85328 206.399H8.8397Z" fill="black"/>
<path d="M31.7999 224.652L35.1286 226.887C35.3256 227.016 35.4003 227.267 35.3188 227.485C35.1286 227.981 34.7889 228.85 34.5715 229.285C34.259 229.917 34.3881 231.18 34.9587 231.248C35.5294 231.316 37.3975 231.01 38.5387 230.779C39.6799 230.548 40.6853 230.08 41.2831 229.183C41.8809 228.286 42.4176 225.134 42.4176 223.783V217.553C42.4176 217.302 42.7097 217.166 42.9067 217.322L46.3508 220.182C46.473 220.284 46.541 220.447 46.5274 220.61C46.4391 221.697 46.0926 225.916 45.8141 228.062C45.5967 229.699 44.7883 233.395 43.715 234.332C42.6417 235.263 39.1025 235.596 37.1937 235.596C35.2848 235.596 33.274 235.29 32.2483 234.57C31.2225 233.843 30.4277 232.097 30.4277 230.976C30.4277 230.311 30.8421 226.676 31.0323 225.026C31.0731 224.652 31.501 224.455 31.8135 224.666L31.7999 224.652Z" fill="black"/>
<path d="M26.9832 224.421L29.2046 225.196C29.2046 225.196 29.2589 225.223 29.2793 225.243L30.1556 226.52C30.2032 226.575 30.2032 226.663 30.1556 226.717C29.6597 227.383 27.2142 230.779 26.236 232.43C25.5974 233.503 24.103 236.9 22.8055 237.355C21.508 237.81 18.0911 237.063 16.6917 236.377C14.7217 235.406 14.2801 232.369 13.8997 231.343C13.8522 231.214 13.9812 231.085 14.1103 231.139C14.6402 231.343 15.8697 232.084 17.1672 232.437C18.9742 232.926 19.735 233.021 20.4211 232.777C21.1072 232.532 23.0976 229.747 23.9196 228.585L26.793 224.482C26.8338 224.421 26.9085 224.401 26.9764 224.421H26.9832Z" fill="black"/>
<path d="M10.4843 215.909C10.43 215.712 10.1651 215.671 10.0632 215.848C9.78466 216.317 9.34311 217.03 8.99666 217.567C8.53473 218.28 6.67342 219.625 6.03487 220.073C5.9058 220.162 5.85146 220.325 5.89221 220.481C6.05525 221.052 6.45604 222.417 6.65984 222.886C6.82966 223.28 7.39349 224.068 7.76032 224.557C7.91656 224.767 8.23583 224.754 8.3717 224.536C8.92873 223.66 10.1107 221.758 10.3485 221.16C10.627 220.461 10.9667 218.565 11.0346 218.158C11.0414 218.103 11.0346 218.056 11.0346 218.001L10.4911 215.902L10.4843 215.909Z" fill="black"/>
<path d="M41.2701 223.626C41.0935 222.73 40.6791 220.868 40.2851 220.603C39.8708 220.318 36.5761 220.542 35.3262 220.637C35.068 220.658 34.8574 220.447 34.8642 220.196L34.8982 219.34C34.905 219.109 35.0952 218.932 35.3262 218.932H37.6358C37.9008 218.932 38.0978 218.694 38.057 218.436L37.6902 216.188C37.663 216.011 37.5271 215.869 37.3505 215.835L35.6183 215.502C34.9933 215.379 34.5925 214.856 34.4091 214.557C34.348 214.462 34.4159 214.333 34.5314 214.333C35.265 214.333 37.4592 214.306 38.1181 214.191C38.9129 214.048 40.6112 213.396 40.6859 212.696C40.7539 211.996 39.2594 210.359 38.1657 210.407C37.1263 210.454 32.5138 211.141 32.0247 211.215C31.9908 211.215 31.9568 211.215 31.9228 211.215C31.7666 211.202 31.359 211.127 31.2843 210.726C31.2231 210.393 31.4337 210.101 31.5764 209.938C31.6511 209.857 31.7462 209.809 31.8481 209.802C32.6361 209.728 36.3248 209.368 37.0312 209.096C37.826 208.79 38.7227 208.301 38.6344 207.574C38.5393 206.847 36.8342 205.142 36.1821 205.19C35.6726 205.224 33.2679 205.72 32.2353 205.93C31.9704 205.985 31.719 205.781 31.719 205.509C31.719 205.285 31.7462 205.013 31.8345 204.762C31.9976 204.307 32.5002 203.22 32.704 202.778C32.7652 202.649 32.7584 202.507 32.6904 202.384C32.507 202.065 32.113 201.426 31.6987 201.026C31.2639 200.611 30.7476 200.231 30.5302 200.075C30.4555 200.02 30.374 200 30.2789 200C29.8034 200 28.2138 200.034 27.4733 200.21C26.9435 200.333 25.9721 200.7 25.2792 200.971C24.9531 201.1 24.9124 201.549 25.2112 201.732C25.6528 202.004 26.2098 202.35 26.5902 202.595C27.3171 203.064 27.6364 203.682 27.9896 204.205C28.2478 204.585 28.3904 205.754 28.4448 206.358C28.4651 206.569 28.3293 206.766 28.1187 206.813C27.3443 206.997 25.5509 207.411 25.0482 207.425C24.6202 207.438 24.2738 206.691 24.0836 206.168C23.9885 205.917 23.6896 205.815 23.4586 205.951C22.6502 206.447 21.0743 207.472 20.9859 207.961C20.8705 208.614 21.2916 209.198 21.8283 209.802C22.3649 210.407 22.8133 211.256 23.5537 211.351C24.2262 211.439 27.2899 210.726 27.8334 210.597C27.9013 210.584 27.9692 210.584 28.0304 210.597C28.1527 210.631 28.3429 210.713 28.404 210.93C28.4516 211.093 28.4312 211.29 28.404 211.446C28.3768 211.602 28.2546 211.725 28.1051 211.772C27.2696 212.017 24.4029 212.832 23.5469 212.873C22.8133 212.907 21.4886 211.976 20.8229 211.467C20.6123 211.304 20.3066 211.372 20.1844 211.609L19.3488 213.26C19.2741 213.403 19.2877 213.572 19.3828 213.702C19.6341 214.062 20.1504 214.775 20.4289 214.999C20.8025 215.305 22.1068 216.351 22.9491 216.426C23.3296 216.46 23.642 216.385 23.8662 216.29C24.0972 216.195 24.3621 216.33 24.43 216.568L24.498 216.792C24.5659 217.03 24.4165 217.282 24.1719 217.329L22.0796 217.757C21.8079 217.811 21.6585 218.11 21.7807 218.362L23.0035 220.916C23.0918 221.099 23.2956 221.194 23.4858 221.147L24.8512 220.821C25.0414 220.773 25.2452 220.868 25.3335 221.045L25.5305 221.439C25.646 221.67 25.5305 221.942 25.2996 222.03C24.5116 222.322 22.922 222.879 22.4532 222.845C21.8215 222.798 21.7264 221.751 21.1014 221.751C20.4765 221.751 18.6016 223.103 18.6016 223.552C18.6016 224 18.9548 224.768 19.3013 225.229C19.6545 225.698 20.5851 226.935 21.2169 227.05C21.8487 227.165 27.8198 225.44 29.8034 225.087C31.522 224.781 38.9129 224.272 40.8761 224.136C41.1343 224.115 41.3177 223.878 41.2633 223.626H41.2701ZM31.3862 220.053L31.3454 220.766C31.3318 220.97 31.1892 221.14 30.9854 221.181L29.2599 221.527C29.0358 221.575 28.8184 221.446 28.7505 221.228L28.5059 220.474C28.4176 220.209 28.5874 219.931 28.8659 219.89L30.8767 219.584C31.1552 219.544 31.4066 219.768 31.393 220.053H31.3862ZM31.6171 215.529L31.1892 215.991C31.1552 216.025 31.1144 216.052 31.0669 216.059L28.7097 216.514C28.6418 216.527 28.5738 216.507 28.5263 216.46L27.8741 215.882C27.7383 215.76 27.7994 215.529 27.9828 215.502L31.1688 214.924C31.2367 214.911 31.3047 214.931 31.359 214.985L31.6103 215.223C31.6987 215.305 31.7054 215.447 31.6171 215.536V215.529Z" fill="black"/>
<g clip-path="url(#clip1_2640_76557)">
<path d="M22.3281 287.42C22.3281 287.651 22.1314 287.794 21.7447 287.862C20.8357 287.93 19.8995 287.896 18.9362 287.767C17.9729 287.637 17.1384 287.454 16.4193 287.229C15.8631 286.998 15.2661 286.671 14.6148 286.25C13.9296 285.726 13.3123 285.141 12.756 284.488V284.535C12.6882 285.025 12.6339 285.345 12.5864 285.488C12.5389 285.637 12.3965 285.821 12.1726 286.052C11.752 286.474 11.3111 286.814 10.8565 287.059C10.402 287.304 9.78467 287.576 8.99774 287.869C8.47538 288.032 7.90553 288.113 7.28819 288.113C6.54196 288.113 5.77538 288.025 4.99523 287.841C4.21508 287.664 3.64523 287.46 3.28568 287.229C2.99397 287.032 2.84473 286.869 2.84473 286.739C2.84473 286.644 2.97362 286.515 3.23819 286.345C5.41583 285.073 7.21357 283.814 8.61106 282.576C9.06558 279.896 9.54045 276.223 10.0289 271.557C10.5173 266.89 10.7955 263.326 10.8565 260.877C10.402 260.782 9.94749 260.564 9.48618 260.238C9.25553 260.109 9.14699 259.898 9.14699 259.598C9.07915 258.258 8.93668 257.279 8.70603 256.66C8.67211 256.592 8.65854 256.51 8.65854 256.415C8.65854 256.218 8.77387 256.156 8.99774 256.218C9.77789 256.313 10.5309 256.476 11.2432 256.707C14.1399 255.864 16.6907 255.292 18.909 255H19.1058C19.3636 255 19.6281 255.116 19.8859 255.34C20.7 255.993 21.297 256.51 21.6701 256.884C22.0432 257.258 22.396 257.694 22.7216 258.183L22.8709 257.939C23.6849 256.864 24.5668 256.027 25.5098 255.442C25.6726 255.313 25.7947 255.265 25.8761 255.292C25.9575 255.327 26.0322 255.422 26.0932 255.585C26.351 256.306 26.697 256.973 27.1176 257.592C29.7904 256.843 33.3045 256.041 37.6666 255.19C37.7616 255.156 37.8769 255.143 38.0058 255.143C38.2025 255.143 38.4264 255.224 38.6909 255.388C40.0613 256.238 41.0382 257.116 41.6216 258.034C41.7166 258.163 41.7708 258.279 41.7708 258.374C41.7708 258.503 41.642 258.605 41.3774 258.666C39.098 258.959 37.3545 259.224 36.1538 259.449C35.0819 260.523 33.6301 262.047 31.8053 264.006C33.5013 264.89 34.7834 265.686 35.6653 266.407C35.8621 266.571 35.9774 266.72 36.0045 266.85C36.0384 266.979 36.0384 267.19 36.0045 267.489L35.9095 268.319C37.3749 267.047 38.3653 266.081 38.8877 265.428C38.8538 264.414 38.6435 263.374 38.25 262.292C38.1822 262.095 38.155 261.979 38.155 261.952C38.155 261.721 38.3653 261.659 38.7927 261.755C40.6786 262.244 42.144 262.829 43.1887 263.516C43.3854 263.646 43.5007 263.755 43.5279 263.836C43.5618 263.918 43.5889 264.088 43.6229 264.353C43.6907 265.462 43.6093 266.394 43.3786 267.142C43.3108 267.305 43.243 267.455 43.1615 267.584C43.0801 267.713 42.9445 267.843 42.7477 267.979C41.8997 268.564 40.8415 269.203 39.5729 269.89C38.3043 270.577 37.5512 270.985 37.3274 271.115C39.5729 273.169 41.5945 275.618 43.3854 278.461C43.9417 278.624 44.2673 278.74 44.3623 278.801C46.2822 279.386 47.8492 279.958 49.05 280.515C49.3078 280.611 49.4435 280.747 49.4435 280.91C49.4435 281.073 49.2942 281.284 49.0025 281.549C48.609 281.876 48.1138 282.202 47.51 282.529C46.9063 282.855 46.2822 283.134 45.6309 283.359C45.3392 283.454 44.8507 283.508 44.1656 283.508C43.4804 283.474 42.7477 283.386 41.9676 283.236C41.1874 283.087 40.5837 282.903 40.1631 282.672C39.8035 282.474 39.5118 282.134 39.2811 281.644C38.2364 278.903 37.0153 276.55 35.6178 274.591C35.6178 276.713 35.7467 279.311 36.0113 282.379C36.303 284.957 36.5811 286.869 36.8389 288.107C36.9068 288.365 36.9339 288.549 36.9339 288.644C36.9339 288.807 36.8796 288.923 36.7643 288.984C36.649 289.052 36.4455 289.1 36.1538 289.134C35.7332 289.202 35.0955 289.229 34.2475 289.229C32.4904 289.229 30.9437 289.018 29.6073 288.59C28.9221 288.331 28.3387 288.018 27.8502 287.658C26.4528 286.583 25.4555 285.359 24.8721 283.984L24.8246 283.889C24.3023 283.957 23.8952 283.984 23.6035 283.984C23.1151 283.984 22.7487 283.957 22.5045 283.91C22.2603 283.862 21.9754 283.753 21.6497 283.59L21.6023 283.542C21.6972 284.393 21.9143 285.515 22.2399 286.923C22.3078 287.182 22.3349 287.345 22.3349 287.413L22.3281 287.42ZM17.0028 283.257V281.053C17.0028 278.441 17.0163 276.434 17.0503 275.026C16.0734 275.284 15.4357 275.468 15.144 275.563C15.0151 275.597 14.8658 275.611 14.703 275.611C14.5063 275.611 14.3638 275.577 14.2621 275.516L13.5769 275.223C13.3191 278.617 13.102 281.032 12.9392 282.474C14.2417 282.93 15.5917 283.195 16.996 283.257H17.0028ZM14.3638 261.068C14.5266 261.197 14.608 261.394 14.608 261.653C14.608 261.911 14.5402 262.891 14.4113 264.591L16.2158 264.197L16.46 264.149C16.6229 264.149 16.7857 264.231 16.9485 264.394L17.2402 264.734L17.3894 259.394C16.5415 259.558 15.1779 259.898 13.2852 260.421L14.357 261.061L14.3638 261.068ZM16.0259 271.502L16.2701 271.455C16.4329 271.455 16.5957 271.536 16.7585 271.7L17.0977 272.094C17.0977 271.047 17.1317 269.611 17.1927 267.781C16.4465 267.945 15.8224 268.108 15.3339 268.271C15.205 268.305 15.0558 268.319 14.893 268.319C14.6962 268.319 14.5538 268.285 14.452 268.224L14.1603 268.074L13.8686 271.992L16.0191 271.502H16.0259ZM20.8628 273.659C22.5249 273.135 23.6985 272.727 24.3769 272.434C25.3877 271.489 26.9141 269.985 28.9696 267.931L30.0415 266.856L29.5055 266.462L28.0877 267.979L27.355 268.761C27.1244 268.992 26.8327 269.183 26.4731 269.346C25.754 269.706 24.9264 269.917 23.9834 269.985H23.6442C23.4136 269.985 23.1422 269.951 22.8166 269.89C22.1992 269.693 21.548 269.387 20.8628 268.958V273.659ZM24.3769 266.265C26.1 264.727 28.108 262.918 30.3874 260.83C28.7932 261.319 27.3618 261.809 26.0864 262.299C26.0186 262.333 25.9372 262.346 25.8422 262.346C25.6116 262.346 25.4216 262.251 25.2588 262.054C24.8043 261.53 24.3633 261.02 23.9427 260.51C23.5221 260.006 23.1626 259.503 22.8709 259.013L22.7216 259.211C22.4299 259.571 21.8736 260.013 21.0595 260.53L21.0121 264.054C20.9442 265.489 20.9171 266.666 20.9171 267.577C22.2874 267.156 23.4407 266.714 24.3837 266.258L24.3769 266.265ZM21.0053 277.087C21.0392 277.835 21.1206 278.998 21.2495 280.563C22.552 280.202 23.6103 279.842 24.4244 279.488C27.5518 275.931 30.0075 273.006 31.7985 270.72L31.8935 269.496C29.9736 271.747 28.4065 273.591 27.2058 275.033C27.009 275.264 26.7648 275.441 26.4731 275.57C25.754 275.897 24.8585 276.094 23.7867 276.155C23.4611 276.155 23.1219 276.107 22.7623 276.005C22.0432 275.747 21.4259 275.4 20.9035 274.978L20.9985 277.087H21.0053ZM31.5543 284.726L31.5068 281.692C31.5068 280.617 31.5407 278.964 31.6018 276.747L30.5774 278.216C28.8814 280.665 27.8435 282.134 27.45 282.624C27.2533 282.882 27.0904 283.08 26.9616 283.209C26.8327 283.338 26.6359 283.454 26.3781 283.549L25.693 283.746C27.1922 284.399 29.146 284.726 31.5543 284.726Z" fill="black"/>
</g>
</g>
<g clip-path="url(#clip2_2640_76557)">
<path d="M114.311 131.057C127.16 127.042 137.31 124.017 144.739 122.015C145.055 110.053 145.534 99.1618 146.176 89.3175C144.471 84.1394 140.546 77.8908 134.39 70.5832C134.075 70.0596 133.911 69.629 133.911 69.3149C133.911 68.896 134.075 68.5469 134.39 68.2792C134.706 68.0116 135.138 67.9418 135.663 68.0465C141.188 68.6865 146.527 69.6058 151.678 70.8276C156.829 72.0494 160.999 73.5039 164.188 75.1912C164.936 75.6101 165.485 76.0406 165.859 76.4595C166.232 76.8784 166.524 77.4719 166.735 78.2049C167.587 80.7416 168.171 83.3365 168.487 85.9896V86.9437C168.487 88.0026 168.218 88.8521 167.692 89.4804C166.209 91.284 165.52 92.1218 165.625 92.0171C165.204 92.436 164.457 93.2389 163.394 94.4025C162.226 101.815 161.326 109.634 160.684 117.896C171.839 115.045 183.684 112.392 196.217 109.96C196.743 109.855 197.327 109.797 197.969 109.797C199.137 109.797 200.364 110.333 201.637 111.391C208.33 116.895 212.687 121.922 214.708 126.472C214.918 127.112 215.024 127.484 215.024 127.577C215.024 128.322 214.381 128.683 213.108 128.683C202.163 128.683 192.234 129.428 183.31 130.905C173.638 132.5 165.672 134.024 159.411 135.513C158.873 146.835 158.616 156.04 158.616 163.126C160.953 163.335 162.763 163.44 164.036 163.44C168.498 163.44 173.253 162.94 178.299 161.928C183.345 160.927 187.994 159.577 192.246 157.878C192.876 157.564 193.461 157.401 193.998 157.401C194.629 157.401 195.376 157.82 196.229 158.669C198.565 160.997 200.691 163.673 202.607 166.687C204.522 169.7 205.737 172.796 206.275 175.972L206.438 177.078C206.438 178.241 205.69 178.986 204.207 179.3C200.703 180.15 196.299 180.813 190.984 181.29C185.669 181.767 180.471 182 175.367 182C169.842 182 165.648 181.791 162.786 181.36C160.45 181.046 158.535 180.359 157.051 179.3C154.925 177.718 152.823 175.751 150.755 173.424C148.688 171.097 147.111 169.037 146.059 167.234C144.891 165.325 144.307 163.056 144.307 160.415C144.307 151.42 144.366 144.496 144.471 139.621C139.588 140.994 134.589 142.739 129.496 144.857C119.509 148.883 112.126 152.584 107.349 155.97C106.928 156.284 106.438 156.447 105.912 156.447C105.059 156.447 104.475 156.028 104.16 155.178C102.992 152.432 101.322 149.488 99.1372 146.37C96.9645 143.251 94.9087 140.633 93.0047 138.515C92.3623 137.666 92.0469 137.038 92.0469 136.607C92.0469 136.177 92.3623 135.606 93.0047 134.862C95.2358 132.325 97.9224 129.812 101.053 127.321C104.183 124.831 107.29 122.795 110.374 121.212L111.332 120.898C111.647 120.898 111.916 121.317 112.126 122.167C112.442 125.017 113.189 127.985 114.357 131.057H114.311Z" fill="black"/>
</g>
<g clip-path="url(#clip3_2640_76557)">
<path d="M154.995 253.895C155.2 255.376 154.953 256.364 154.254 256.858C151.085 259.533 149.357 261.199 149.068 261.899C145.406 271.488 142.196 283.875 139.438 299.082C139.15 300.461 138.821 301.386 138.471 301.819C138.121 302.271 137.463 302.724 136.475 303.218C133.306 304.699 129.294 306.037 124.397 307.21C119.499 308.403 115.59 308.979 112.626 308.979C111.042 308.979 109.869 308.938 109.067 308.835C106.309 308.547 103.285 307.745 100.033 306.469C96.7822 305.193 94.1071 303.856 92.0289 302.477C91.3292 302.086 91 301.633 91 301.14C91 300.543 91.391 300.111 92.1935 299.802C93.5721 299.205 94.9919 298.691 96.4118 298.238C97.8522 297.785 99.2102 297.333 100.486 296.839C110.075 293.588 116.68 291.057 120.343 289.287C123.409 283.855 126.228 277.929 128.779 271.509C131.352 265.089 133.224 259.306 134.418 254.183C133.924 251.919 132.957 249.409 131.537 246.693C130.096 243.976 128.656 241.672 127.174 239.799C126.886 239.306 126.722 238.915 126.722 238.606C126.722 237.906 127.174 237.577 128.059 237.577C131.125 237.577 135.302 238.297 140.57 239.717C145.858 241.157 149.439 242.454 151.311 243.647C152.093 244.141 152.587 244.532 152.793 244.841C152.999 245.129 153.246 245.787 153.534 246.775C154.213 248.359 154.727 250.726 155.015 253.895H154.995ZM146.558 219.222C145.858 219.51 145.529 219.86 145.529 220.251C145.529 220.457 145.92 220.786 146.723 221.28C151.167 223.852 154.871 227.453 157.834 232.104C163.267 240.705 167.979 251.22 171.991 263.669C176.004 276.118 178.926 287.662 180.798 298.341C181.004 299.617 181.292 300.543 181.683 301.078C182.074 301.613 182.774 302.148 183.761 302.642C187.321 304.514 191.21 306.016 195.47 307.169C199.709 308.3 204.071 308.877 208.516 308.877C209.997 308.877 211.026 308.835 211.623 308.732C214.792 308.136 218.084 307.148 221.541 305.769C224.998 304.391 227.714 302.95 229.689 301.469C230.574 300.872 231.027 300.275 231.027 299.699C231.027 299.205 230.574 298.753 229.689 298.362C222.179 294.514 212.693 290.46 201.252 286.221C197.301 277.62 194.379 271.118 192.507 266.673C189.646 260.253 186.786 253.998 183.905 247.927C181.045 241.857 178.267 236.342 175.613 231.404C174.419 229.14 173.555 226.836 173.02 224.511C172.485 222.185 172.156 220.889 172.053 220.58C171.559 219.305 170.777 218.461 169.687 218.07C167.505 217.391 164.46 217.041 160.509 217.041C154.686 217.041 150.036 217.782 146.579 219.263L146.558 219.222Z" fill="black"/>
</g>
<path d="M73.8184 0C77.7778 0 79.6273 2.14539 80.57 2.14539C81.0638 2.14539 81.2524 1.92098 81.2524 0.377015H82.1233L82.6889 10.7449H81.818C81.1805 4.29977 78.4961 1.40034 74.3571 1.40034C68.7367 1.40034 65.4956 7.77369 65.4956 15.8346C65.4956 23.8956 68.7367 30.0445 74.2763 30.0445C79.0617 30.0445 82.3477 25.637 83.2455 18.7341H84.0715C83.1288 26.2744 79.8518 31.6603 73.6299 31.6603C66.3575 31.6603 61.9043 24.8022 61.9043 15.8257C61.9043 6.8491 66.5371 0 73.8184 0Z" fill="black"/>
<path d="M92.1791 14.0573H92.2959C93.7324 11.9837 95.5011 10.3589 97.7995 10.3589C100.556 10.3589 101.642 12.3158 101.642 15.6012V27.1361C101.642 29.5508 101.983 30.0355 104.21 30.0355V30.9062H96.4079V30.0355C98.5178 30.0355 98.8589 29.5418 98.8589 27.1361V15.6012C98.8589 13.4917 98.1766 12.3966 96.6683 12.3966C95.1599 12.3966 93.5349 13.7521 92.1791 15.4486V27.1361C92.1791 29.5508 92.4844 30.0355 94.6302 30.0355V30.9062H86.8281V30.0355C89.0547 30.0355 89.3959 29.5418 89.3959 27.1361V4.86529C89.3959 2.4865 89.4318 2.03768 87.3938 3.05203L87.0167 2.26209L89.7281 0.978444L91.7302 0L92.1791 0.448827V14.0573Z" fill="black"/>
<path d="M117.667 27.9709H117.55C116.158 30.0086 114.462 31.6693 112.163 31.6693C109.407 31.6693 108.321 29.6675 108.321 26.427V15.0447C108.321 12.6659 108.204 12.2171 106.022 12.8544L105.762 12.0286L110.664 10.6372L111.113 11.1309V26.4359C111.113 28.5454 111.75 29.6406 113.259 29.6406C114.839 29.6406 116.311 28.2851 117.667 26.5526V15.0537C117.667 12.6749 117.595 12.2261 115.368 12.8634L115.144 12.0375L120.01 10.6462L120.504 11.1399L120.468 26.8219C120.468 29.2007 120.396 29.6495 122.425 28.6711L122.802 29.4251L120.127 30.7088L118.17 31.6872L117.676 31.2384V27.9978L117.667 27.9709Z" fill="black"/>
<path d="M132.86 30.0445V30.9152H124.941V30.0445C127.168 30.0445 127.509 29.5508 127.509 27.1451V4.86529C127.509 2.4865 127.545 2.03768 125.507 3.05203L125.13 2.26209L127.841 0.978444L129.844 0L130.292 0.448827V27.1361C130.292 29.5508 130.634 30.0355 132.86 30.0355V30.0445ZM142.817 30.0445V30.9152H134.521V30.0445C137.089 30.0445 136.82 29.7393 135.617 27.6298L131.056 19.4881L135.922 13.9496C137.502 12.1363 138.032 11.9478 135.32 11.9478V11.1219H142.072V11.9478C140.492 11.9478 139.396 12.1363 137.807 13.9496L134 18.4378L139.163 27.6388C140.366 29.7483 141.237 30.0535 142.817 30.0535V30.0445Z" fill="black"/>
<path d="M161.134 28.3837C160.604 30.2688 160.038 31.6602 158.117 31.6602C156.079 31.6602 155.361 30.2688 155.361 28.1503V27.7374H155.289C154.606 28.9044 152.954 31.6602 149.821 31.6602C147.181 31.6602 145.709 29.7751 145.709 26.9475C145.709 22.163 149.74 20.619 153.592 18.8058L155.361 17.9799V16.1667C155.361 13.4557 155.019 11.5258 152.344 11.5258C150.764 11.5258 149.552 12.2798 149.552 13.4468C149.552 14.3175 150.189 14.8022 150.189 15.7448C150.189 16.5347 149.507 17.0643 148.528 17.0643C147.361 17.0643 146.715 16.1936 146.715 14.6137C146.715 11.9746 149.166 10.3499 152.559 10.3499C155.953 10.3499 158.135 12.1182 158.135 16.2654V28.4376C158.135 29.6045 158.252 30.206 158.925 30.206C159.562 30.206 159.796 29.6764 160.281 28.3568H161.107L161.134 28.3837ZM155.37 26.382V19.2995L153.673 20.0894C150.656 21.5616 148.546 23.4107 148.546 26.2742C148.546 28.3478 149.561 29.4071 151.069 29.4071C152.694 29.4071 153.825 28.4645 155.37 26.3909V26.382Z" fill="black"/>
<path d="M164.418 19.5601H176.862V21.894H164.418V19.5601Z" fill="black"/>
<path d="M181.72 20.2062H182.546C182.662 26.427 186.092 30.233 190.051 30.233C193.257 30.233 195.25 28.1594 195.25 25.1074C195.25 21.5617 191.596 18.8867 187.789 15.6461C183.605 12.0286 181.684 10.2153 181.684 6.44516C181.684 2.3339 184.772 0 188.767 0C192.763 0 194.46 2.71092 195.286 2.71092C195.699 2.71092 195.851 2.4506 195.851 0.637335H196.677V9.46128H195.851C195.735 4.74859 192.987 1.39136 189.028 1.39136C185.787 1.39136 184.386 3.42904 184.386 5.50262C184.386 8.63544 187.475 10.7 190.267 13.1506C195.205 17.4863 197.961 19.4073 197.961 24.3085C197.961 29.2097 194.19 31.6603 190.455 31.6603C185.778 31.6603 184.422 28.8327 183.327 28.8327C182.725 28.8327 182.537 29.3982 182.537 31.0229H181.711V20.2062H181.72Z" fill="black"/>
<path d="M202.045 20.9962C202.045 14.9998 205.026 10.3679 210 10.3679C214.974 10.3679 217.99 15.0088 217.99 20.9962C217.99 26.9835 214.974 31.6603 210 31.6603C205.026 31.6603 202.045 26.9835 202.045 20.9962ZM214.749 20.5832C214.219 14.7036 212.226 11.5349 209.21 11.8042C206.193 12.1094 204.756 15.5384 205.25 21.454C205.78 27.2977 207.773 30.4664 210.826 30.1971C213.806 29.9368 215.234 26.4629 214.749 20.5832Z" fill="black"/>
<path d="M222.67 4.86529C222.67 2.4865 222.741 2.03768 220.748 3.01612L220.371 2.26209L225.013 0L225.507 0.448827V14.0573H225.659C227.204 11.9119 228.9 10.3589 231.199 10.3589C234.557 10.3589 236.927 13.8239 236.927 19.6317C236.927 26.1128 234.063 31.6603 229.421 31.6603C226.665 31.6603 224.591 30.1881 222.67 28.7968V4.86529ZM229.233 30.233C232.59 30.233 233.722 25.26 233.722 20.7358C233.722 15.0447 232.366 12.4415 230.068 12.4415C227.994 12.4415 226.638 14.0662 225.507 15.4576V27.935C226.449 28.9942 227.697 30.233 229.242 30.233H229.233Z" fill="black"/>
<path d="M256.257 28.3837C255.727 30.2688 255.161 31.6602 253.24 31.6602C251.202 31.6602 250.484 30.2688 250.484 28.1503V27.7374H250.412C249.729 28.9044 248.077 31.6602 244.944 31.6602C242.304 31.6602 240.832 29.7751 240.832 26.9475C240.832 22.163 244.863 20.619 248.715 18.8058L250.484 17.9799V16.1667C250.484 13.4557 250.142 11.5258 247.467 11.5258C245.887 11.5258 244.675 12.2798 244.675 13.4468C244.675 14.3175 245.312 14.8022 245.312 15.7448C245.312 16.5347 244.63 17.0643 243.651 17.0643C242.484 17.0643 241.838 16.1936 241.838 14.6137C241.838 11.9746 244.289 10.3499 247.682 10.3499C251.076 10.3499 253.258 12.1182 253.258 16.2654V28.4376C253.258 29.6045 253.375 30.206 254.048 30.206C254.685 30.206 254.919 29.6764 255.404 28.3568H256.23L256.257 28.3837ZM250.493 26.382V19.2995L248.796 20.0894C245.779 21.5616 243.669 23.4107 243.669 26.2742C243.669 28.3478 244.684 29.4071 246.192 29.4071C247.817 29.4071 248.948 28.4645 250.493 26.3909V26.382Z" fill="black"/>
<path d="M61.8406 372.006H62.6666C62.7833 378.227 66.213 382.033 70.1724 382.033C73.3776 382.033 75.3708 379.959 75.3708 376.907C75.3708 373.361 71.7166 370.686 67.9099 367.446C63.726 363.828 61.8047 362.015 61.8047 358.245C61.8047 354.134 64.8932 351.8 68.8885 351.8C72.8838 351.8 74.5807 354.511 75.4067 354.511C75.8197 354.511 75.9723 354.25 75.9723 352.437H76.7983V361.261H75.9723C75.8556 356.548 73.1083 353.191 69.1489 353.191C65.9077 353.191 64.5071 355.229 64.5071 357.302C64.5071 360.435 67.5956 362.5 70.3879 364.95C75.3259 369.286 78.0822 371.207 78.0822 376.108C78.0822 381.009 74.3114 383.46 70.5764 383.46C65.8988 383.46 64.543 380.632 63.4477 380.632C62.8462 380.632 62.6576 381.198 62.6576 382.823H61.8316V372.006H61.8406Z" fill="black"/>
<path d="M86.2006 365.866H86.3173C87.7539 363.792 89.5226 362.168 91.821 362.168C94.5773 362.168 95.6637 364.125 95.6637 367.41V378.945C95.6637 381.36 96.0048 381.844 98.2314 381.844V382.715H90.4294V381.844C92.5393 381.844 92.8804 381.351 92.8804 378.945V367.41C92.8804 365.301 92.1981 364.205 90.6897 364.205C89.1814 364.205 87.5563 365.561 86.2006 367.257V378.945C86.2006 381.36 86.5059 381.844 88.6517 381.844V382.715H80.8496V381.844C83.0762 381.844 83.4174 381.351 83.4174 378.945V356.665C83.4174 354.286 83.4533 353.837 81.4152 354.852L81.0382 354.062L83.7496 352.778L85.7517 351.8L86.2006 352.249V365.857V365.866Z" fill="black"/>
<path d="M108.331 381.844V382.715H100.412V381.844C102.639 381.844 102.98 381.351 102.98 378.945V367.033C102.98 364.654 103.016 364.205 100.978 365.22L100.601 364.43L103.312 363.146L105.314 362.168L105.763 362.617V378.936C105.763 381.351 106.104 381.835 108.331 381.835V381.844ZM102.145 353.766C102.145 352.671 103.052 351.809 104.147 351.809C105.242 351.809 106.104 352.68 106.104 353.766C106.104 354.852 105.233 355.767 104.147 355.767C103.061 355.767 102.145 354.861 102.145 353.766Z" fill="black"/>
<path d="M118.397 363.568C115.64 363.568 114.365 367.078 114.365 372.428C114.365 377.778 116.215 381.396 119.267 381.396C121.27 381.396 122.697 379.735 123.757 374.914H124.583C123.864 380.606 121.683 383.469 118.136 383.469C113.647 383.469 111.16 379.286 111.16 373.182C111.16 366.432 114.141 362.177 118.585 362.177C121.862 362.177 123.936 364.816 123.936 367.042C123.936 368.209 123.406 368.891 122.275 368.891C121.144 368.891 120.506 368.29 120.426 366.97C120.309 365.013 119.86 363.577 118.388 363.577L118.397 363.568Z" fill="black"/>
<path d="M131.935 365.866H132.052C133.488 363.792 135.257 362.168 137.555 362.168C140.312 362.168 141.398 364.125 141.398 367.41V378.945C141.398 381.36 141.739 381.844 143.966 381.844V382.715H136.164V381.844C138.274 381.844 138.615 381.351 138.615 378.945V367.41C138.615 365.301 137.932 364.205 136.424 364.205C134.916 364.205 133.291 365.561 131.935 367.257V378.945C131.935 381.36 132.24 381.844 134.386 381.844V382.715H126.584V381.844C128.811 381.844 129.152 381.351 129.152 378.945V356.665C129.152 354.286 129.188 353.837 127.15 354.852L126.773 354.062L129.484 352.778L131.486 351.8L131.935 352.249V365.857V365.866Z" fill="black"/>
<path d="M154.065 381.844V382.715H146.146V381.844C148.373 381.844 148.714 381.351 148.714 378.945V367.033C148.714 364.654 148.75 364.205 146.712 365.22L146.335 364.43L149.046 363.146L151.049 362.168L151.498 362.617V378.936C151.498 381.351 151.839 381.835 154.065 381.835V381.844ZM147.879 353.766C147.879 352.671 148.786 351.809 149.881 351.809C150.977 351.809 151.839 352.68 151.839 353.766C151.839 354.852 150.968 355.767 149.881 355.767C148.795 355.767 147.879 354.861 147.879 353.766Z" fill="black"/>
<path d="M188.337 356.288V378.945C188.337 381.243 188.75 381.844 192.296 381.844V382.715H181.065V381.844C184.647 381.844 185.06 381.243 185.06 378.945V367.41H173.595V378.945C173.595 381.243 174.008 381.844 177.554 381.844V382.715H166.322V381.844C169.905 381.844 170.318 381.243 170.318 378.945V356.288C170.318 353.99 169.905 353.389 166.322 353.389V352.563H177.554V353.389C174.008 353.389 173.595 353.99 173.595 356.288V366.01H185.06V356.288C185.06 353.99 184.647 353.389 181.065 353.389V352.563H192.296V353.389C188.75 353.389 188.337 353.99 188.337 356.288Z" fill="black"/>
<path d="M210.62 380.184C210.09 382.069 209.525 383.46 207.603 383.46C205.565 383.46 204.847 382.069 204.847 379.95V379.537H204.775C204.093 380.704 202.441 383.46 199.307 383.46C196.668 383.46 195.195 381.575 195.195 378.748C195.195 373.963 199.227 372.419 203.078 370.606L204.847 369.78V367.967C204.847 365.256 204.506 363.326 201.83 363.326C200.25 363.326 199.038 364.08 199.038 365.247C199.038 366.118 199.675 366.602 199.675 367.545C199.675 368.335 198.993 368.864 198.014 368.864C196.847 368.864 196.201 367.994 196.201 366.414C196.201 363.775 198.652 362.15 202.046 362.15C205.439 362.15 207.621 363.918 207.621 368.065V380.238C207.621 381.405 207.738 382.006 208.411 382.006C209.049 382.006 209.282 381.476 209.767 380.157H210.593L210.62 380.184ZM204.856 378.182V371.1L203.159 371.889C200.142 373.362 198.032 375.211 198.032 378.074C198.032 380.148 199.047 381.207 200.555 381.207C202.18 381.207 203.312 380.265 204.856 378.191V378.182Z" fill="black"/>
<path d="M220.684 363.568C217.927 363.568 216.652 367.078 216.652 372.428C216.652 377.778 218.502 381.396 221.555 381.396C223.557 381.396 224.984 379.735 226.044 374.914H226.87C226.151 380.606 223.97 383.469 220.423 383.469C215.934 383.469 213.447 379.286 213.447 373.182C213.447 366.432 216.428 362.177 220.872 362.177C224.149 362.177 226.223 364.816 226.223 367.042C226.223 368.209 225.694 368.891 224.562 368.891C223.431 368.891 222.794 368.29 222.713 366.97C222.596 365.013 222.147 363.577 220.675 363.577L220.684 363.568Z" fill="black"/>
<path d="M234.224 365.866H234.341C235.777 363.792 237.546 362.168 239.844 362.168C242.601 362.168 243.687 364.125 243.687 367.41V378.945C243.687 381.36 244.028 381.844 246.255 381.844V382.715H238.453V381.844C240.563 381.844 240.904 381.351 240.904 378.945V367.41C240.904 365.301 240.222 364.205 238.713 364.205C237.205 364.205 235.58 365.561 234.224 367.257V378.945C234.224 381.36 234.529 381.844 236.675 381.844V382.715H228.873V381.844C231.1 381.844 231.441 381.351 231.441 378.945V356.665C231.441 354.286 231.477 353.837 229.439 354.852L229.062 354.062L231.773 352.778L233.775 351.8L234.224 352.249V365.857V365.866Z" fill="black"/>
<path d="M256.356 381.844V382.715H248.438V381.844C250.664 381.844 251.005 381.351 251.005 378.945V367.033C251.005 364.654 251.041 364.205 249.003 365.22L248.626 364.43L251.337 363.146L253.34 362.168L253.789 362.617V378.936C253.789 381.351 254.13 381.835 256.356 381.835V381.844ZM250.17 353.766C250.17 352.671 251.077 351.809 252.172 351.809C253.268 351.809 254.13 352.68 254.13 353.766C254.13 354.852 253.259 355.767 252.172 355.767C251.086 355.767 250.17 354.861 250.17 353.766Z" fill="black"/>
<path d="M259.749 362.931C245.339 362.931 233.658 374.609 233.658 389.017C233.658 403.424 245.339 415.103 259.749 415.103C274.159 415.103 285.84 403.424 285.84 389.017C285.84 374.609 274.159 362.931 259.749 362.931ZM280.345 374.762L264.166 373.873C264.193 373.577 264.211 373.263 264.211 372.922C264.211 372.374 264.166 371.898 264.103 371.477L277.391 371.234C278.477 372.311 279.465 373.496 280.345 374.762ZM234.7 389.017C234.7 375.202 245.94 363.954 259.758 363.954C265.719 363.954 271.205 366.055 275.515 369.547L252.908 371.001C252.719 371.01 252.575 371.18 252.593 371.369C252.611 371.539 252.764 371.674 252.934 371.674L256.499 371.611C256.562 371.988 256.598 372.419 256.598 372.922C256.598 373.11 256.598 373.29 256.58 373.46L253.024 373.263C252.836 373.254 252.674 373.407 252.665 373.595C252.665 373.766 252.791 373.918 252.97 373.936L256.49 374.295C256.328 375.274 255.987 375.92 255.637 376.593C255.125 377.572 254.604 378.586 254.604 380.579C254.604 382.374 255.026 383.37 255.484 384.268C248.365 384.744 242.843 386.378 241.074 388.523C240.688 388.999 240.473 389.493 240.473 390.013C240.473 391.072 240.58 392.132 240.778 393.182C240.85 393.559 240.94 393.936 241.038 394.295C241.101 394.528 241.173 394.762 241.245 394.995L241.173 394.932L241.667 396.153C241.963 396.889 242.322 397.616 242.735 398.316L242.78 398.397C244.585 401.44 247.287 403.9 250.618 405.543C248.804 406.045 247.7 406.701 247.7 407.41C247.7 408.99 253.096 410.273 259.749 410.273C266.402 410.273 271.798 408.99 271.798 407.41C271.798 406.692 270.693 406.045 268.88 405.543C272.238 403.891 274.967 401.404 276.772 398.316L277.409 397.221L277.337 397.257C277.517 396.889 277.687 396.521 277.84 396.144L278.343 394.914L278.262 394.977C278.334 394.744 278.406 394.51 278.469 394.277C278.567 393.9 278.657 393.523 278.729 393.164C278.935 392.123 279.043 391.063 279.043 389.995C279.043 387.051 272.3 384.681 263.161 384.205C262.676 383.272 262.218 382.374 262.218 380.57C262.218 378.766 262.685 377.85 263.17 376.907C263.457 376.351 263.753 375.794 263.951 375.049L281.638 376.845C283.649 380.453 284.807 384.6 284.807 389.017C284.807 402.832 273.566 414.079 259.749 414.079C245.931 414.079 234.691 402.841 234.691 389.017H234.7ZM263.529 384.941C272.534 385.462 278.343 387.805 278.343 390.013C278.343 390.085 278.343 390.157 278.325 390.229C278.325 390.256 278.316 390.273 278.307 390.3C278.298 390.345 278.289 390.39 278.271 390.444C278.262 390.471 278.253 390.498 278.235 390.525C278.217 390.57 278.199 390.606 278.181 390.65C278.163 390.677 278.145 390.713 278.136 390.74C278.109 390.776 278.091 390.821 278.064 390.857C278.047 390.884 278.02 390.92 278.002 390.947C277.975 390.983 277.948 391.027 277.912 391.063C277.885 391.099 277.858 391.126 277.831 391.162C277.795 391.198 277.759 391.243 277.723 391.279C277.696 391.306 277.66 391.342 277.625 391.369C277.58 391.405 277.535 391.449 277.49 391.485C277.454 391.512 277.418 391.548 277.382 391.575C277.364 391.584 277.355 391.593 277.337 391.611C277.328 391.611 277.31 391.593 277.301 391.584C277.256 391.557 277.203 391.521 277.158 391.494C277.104 391.458 277.05 391.422 276.996 391.396C276.942 391.369 276.888 391.333 276.843 391.306C276.79 391.27 276.727 391.243 276.673 391.207C276.619 391.18 276.565 391.144 276.502 391.117C276.439 391.081 276.386 391.054 276.323 391.027C276.26 391.001 276.206 390.965 276.143 390.938C276.08 390.911 276.017 390.875 275.955 390.848C275.892 390.821 275.829 390.794 275.766 390.758C275.703 390.731 275.631 390.695 275.569 390.668C275.506 390.642 275.434 390.615 275.362 390.588C275.29 390.561 275.227 390.534 275.156 390.507C275.084 390.48 275.012 390.453 274.94 390.426C274.868 390.399 274.796 390.372 274.725 390.345C274.653 390.318 274.581 390.291 274.5 390.265C274.428 390.238 274.347 390.211 274.276 390.184C274.195 390.157 274.123 390.13 274.042 390.103C273.961 390.076 273.89 390.049 273.809 390.031C271.241 389.214 267.91 388.631 264.193 388.379C264.193 388.335 264.193 388.29 264.193 388.245C264.193 386.701 263.879 385.749 263.502 384.941H263.529ZM269.32 395.139C272.22 394.645 274.635 393.936 276.323 393.083C276.709 392.886 277.05 392.688 277.355 392.482H277.373C277.436 392.428 277.499 392.383 277.562 392.338L277.948 392.051H277.93C278.047 391.943 278.145 391.844 278.244 391.746C278.199 392.177 278.127 392.607 278.047 393.038C277.975 393.388 277.894 393.747 277.795 394.106C277.705 394.448 277.598 394.789 277.481 395.121C277.4 395.354 277.319 395.579 277.23 395.803C275.964 396.764 273.683 397.625 270.774 398.236C269.724 398.46 268.601 398.649 267.443 398.801C265.136 399.106 262.631 399.268 260.054 399.277C260.027 399.277 260 399.277 259.973 399.277C259.902 399.277 259.839 399.277 259.767 399.277C256.804 399.277 253.931 399.079 251.336 398.693C250.447 398.559 249.586 398.406 248.76 398.236C245.851 397.625 243.561 396.755 242.295 395.794C242.205 395.57 242.125 395.345 242.044 395.112C241.927 394.78 241.819 394.439 241.73 394.097C241.631 393.747 241.55 393.388 241.478 393.029C241.397 392.598 241.326 392.168 241.281 391.737C241.379 391.835 241.478 391.934 241.595 392.033H241.577L241.963 392.329C242.026 392.374 242.089 392.419 242.152 392.464L242.17 392.482C242.475 392.679 242.816 392.886 243.202 393.083C244.89 393.936 247.305 394.645 250.205 395.139C253.096 395.632 256.4 395.893 259.767 395.893C263.134 395.893 266.438 395.632 269.329 395.139H269.32ZM259.758 406.943C256.768 406.943 253.922 406.315 251.282 405.085C248.275 403.675 245.779 401.584 244.001 398.99C245.24 399.519 246.793 399.986 248.553 400.354C251.83 401.054 255.709 401.422 259.758 401.422C263.807 401.422 267.695 401.054 270.963 400.354C272.722 399.977 274.276 399.51 275.515 398.981C273.737 401.575 271.241 403.666 268.233 405.076C265.594 406.306 262.748 406.934 259.758 406.934V406.943ZM266.303 406.602C264.445 407.769 262.155 408.406 259.758 408.406C257.361 408.406 255.071 407.76 253.213 406.602C253.231 406.602 253.258 406.611 253.276 406.62C253.491 406.692 253.707 406.754 253.931 406.817C253.967 406.826 254.003 406.835 254.039 406.853C254.281 406.925 254.524 406.988 254.775 407.051C254.802 407.051 254.829 407.06 254.865 407.069C255.089 407.122 255.305 407.167 255.529 407.212C255.574 407.221 255.619 407.23 255.664 407.239C255.915 407.284 256.158 407.338 256.409 407.374C256.427 407.374 256.454 407.374 256.472 407.383C256.696 407.419 256.93 407.446 257.163 407.482C257.217 407.482 257.262 407.49 257.316 407.499C257.567 407.526 257.819 407.553 258.079 407.571C258.079 407.571 258.097 407.571 258.106 407.571C258.348 407.589 258.591 407.607 258.833 407.616C258.887 407.616 258.941 407.616 259.004 407.616C259.255 407.616 259.515 407.634 259.767 407.634C260.018 407.634 260.279 407.634 260.53 407.616C260.584 407.616 260.647 407.616 260.701 407.616C260.943 407.607 261.185 407.589 261.428 407.571C261.437 407.571 261.446 407.571 261.464 407.571C261.715 407.553 261.967 407.526 262.218 407.499C262.272 407.499 262.317 407.49 262.371 407.482C262.604 407.455 262.828 407.419 263.062 407.383C263.08 407.383 263.107 407.383 263.125 407.374C263.376 407.338 263.628 407.284 263.879 407.239C263.924 407.239 263.96 407.221 264.005 407.212C264.229 407.167 264.453 407.113 264.678 407.06C264.705 407.06 264.732 407.051 264.759 407.042C265.01 406.979 265.253 406.916 265.495 406.844C265.531 406.835 265.567 406.826 265.603 406.817C265.818 406.754 266.043 406.683 266.258 406.62C266.285 406.62 266.303 406.602 266.33 406.602H266.303ZM270.819 399.672C270.397 399.762 269.966 399.842 269.526 399.923C266.59 400.444 263.241 400.722 259.758 400.722C255.754 400.722 251.92 400.363 248.697 399.672C246.47 399.196 244.603 398.577 243.301 397.886C243.13 397.589 242.969 397.284 242.816 396.979C244.208 397.751 246.174 398.415 248.607 398.927C251.875 399.618 255.727 399.977 259.758 399.977C261.886 399.977 263.969 399.878 265.944 399.672C267.704 399.492 269.374 399.241 270.909 398.918C271.654 398.756 272.354 398.586 273.01 398.406C274.491 397.993 275.73 397.509 276.7 396.97C276.547 397.275 276.386 397.58 276.215 397.877C275.999 397.993 275.775 398.101 275.533 398.209C274.294 398.765 272.687 399.268 270.819 399.663V399.672ZM257.181 371.611H257.872C257.935 371.988 257.971 372.419 257.971 372.931C257.971 374.762 257.504 375.651 257.02 376.593C256.508 377.572 255.987 378.586 255.987 380.579C255.987 382.572 256.517 383.586 257.02 384.573C257.513 385.516 257.971 386.414 257.971 388.245C257.738 388.245 257.504 388.263 257.28 388.272C257.28 388.263 257.28 388.254 257.28 388.245C257.28 386.414 256.813 385.525 256.328 384.573C255.816 383.595 255.296 382.581 255.296 380.579C255.296 378.577 255.825 377.572 256.328 376.593C256.822 375.651 257.28 374.753 257.28 372.931C257.28 372.428 257.244 371.997 257.181 371.611ZM258.564 371.584H259.255C259.318 371.961 259.363 372.41 259.363 372.931C259.363 374.762 258.896 375.651 258.411 376.593C257.899 377.572 257.379 378.586 257.379 380.579C257.379 382.572 257.908 383.586 258.411 384.573C258.896 385.516 259.363 386.405 259.363 388.218C259.129 388.218 258.896 388.218 258.672 388.218C258.672 386.396 258.205 385.507 257.72 384.564C257.208 383.586 256.687 382.572 256.687 380.57C256.687 378.568 257.208 377.563 257.72 376.584C258.214 375.642 258.672 374.744 258.672 372.922C258.672 372.401 258.636 371.961 258.573 371.575L258.564 371.584ZM259.946 371.557H260.638C260.71 371.943 260.746 372.392 260.746 372.931C260.746 374.762 260.279 375.651 259.794 376.593C259.282 377.572 258.761 378.586 258.761 380.579C258.761 382.572 259.282 383.586 259.794 384.573C260.288 385.516 260.746 386.405 260.746 388.227C260.512 388.227 260.288 388.227 260.054 388.227C260.054 386.414 259.587 385.525 259.102 384.582C258.591 383.604 258.07 382.59 258.07 380.588C258.07 378.586 258.6 377.581 259.102 376.602C259.596 375.66 260.054 374.762 260.054 372.94C260.054 372.41 260.018 371.961 259.946 371.566V371.557ZM261.329 371.53H262.02C262.092 371.925 262.137 372.383 262.137 372.931C262.137 374.762 261.67 375.651 261.185 376.593C260.674 377.572 260.153 378.586 260.153 380.579C260.153 382.572 260.674 383.586 261.185 384.573C261.679 385.516 262.137 386.414 262.137 388.245C262.137 388.245 262.137 388.263 262.137 388.272C261.904 388.272 261.679 388.254 261.446 388.254C261.446 386.423 260.979 385.534 260.494 384.582C259.982 383.604 259.462 382.59 259.462 380.588C259.462 378.586 259.991 377.581 260.494 376.602C260.988 375.66 261.446 374.762 261.446 372.94C261.446 372.401 261.401 371.943 261.338 371.539L261.329 371.53ZM256.589 388.236C256.589 388.236 256.589 388.272 256.589 388.29C252.369 388.496 248.553 389.107 245.698 390.022C245.617 390.049 245.536 390.076 245.447 390.103C245.375 390.13 245.303 390.148 245.231 390.175C245.15 390.202 245.07 390.229 244.998 390.256C244.926 390.282 244.854 390.309 244.791 390.327C244.71 390.354 244.639 390.381 244.567 390.417C244.495 390.444 244.432 390.471 244.36 390.498C244.288 390.525 244.217 390.561 244.145 390.588C244.082 390.615 244.01 390.642 243.947 390.668C243.875 390.695 243.813 390.731 243.741 390.758C243.678 390.785 243.615 390.812 243.552 390.839C243.489 390.866 243.426 390.902 243.355 390.929C243.292 390.956 243.238 390.983 243.175 391.019C243.112 391.045 243.049 391.081 242.996 391.117C242.942 391.144 242.888 391.18 242.825 391.207C242.771 391.243 242.708 391.27 242.654 391.306C242.601 391.333 242.547 391.369 242.502 391.396C242.448 391.431 242.394 391.458 242.34 391.494C242.286 391.53 242.241 391.557 242.196 391.593C242.188 391.593 242.17 391.611 242.161 391.611C242.143 391.602 242.125 391.584 242.116 391.575C242.08 391.548 242.053 391.521 242.017 391.494C241.972 391.449 241.918 391.413 241.873 391.369C241.846 391.342 241.81 391.306 241.783 391.279C241.748 391.234 241.703 391.198 241.667 391.153C241.64 391.126 241.613 391.09 241.595 391.063C241.559 391.019 241.532 390.983 241.505 390.938C241.487 390.911 241.46 390.875 241.442 390.848C241.415 390.803 241.388 390.767 241.37 390.722C241.353 390.695 241.335 390.659 241.326 390.633C241.308 390.588 241.29 390.543 241.272 390.507C241.263 390.48 241.245 390.453 241.236 390.426C241.218 390.381 241.209 390.327 241.2 390.282C241.2 390.256 241.191 390.238 241.182 390.211C241.173 390.139 241.164 390.067 241.164 389.995C241.164 387.805 246.91 385.48 255.816 384.932C256.229 385.758 256.58 386.638 256.58 388.227L256.589 388.236ZM263.511 388.326C263.277 388.317 263.053 388.299 262.819 388.29C262.819 388.272 262.819 388.254 262.819 388.236C262.819 386.405 262.353 385.516 261.868 384.564C261.356 383.586 260.835 382.572 260.835 380.57C260.835 378.568 261.365 377.563 261.868 376.584C262.362 375.642 262.819 374.744 262.819 372.922C262.819 372.374 262.775 371.907 262.703 371.503H263.394C263.466 371.898 263.511 372.365 263.511 372.922C263.511 374.753 263.044 375.642 262.559 376.584C262.047 377.563 261.527 378.577 261.527 380.57C261.527 382.563 262.056 383.577 262.559 384.564C263.053 385.507 263.511 386.405 263.511 388.236C263.511 388.263 263.511 388.29 263.511 388.326Z" fill="#B01E23"/>
<defs>
<clipPath id="clip0_2640_76557">
<rect width="49" height="200" fill="white" transform="translate(0 91)"/>
</clipPath>
<clipPath id="clip1_2640_76557">
<rect width="46.5987" height="34.2358" fill="white" transform="translate(2.83789 255)"/>
</clipPath>
<clipPath id="clip2_2640_76557">
<rect width="123" height="114" fill="white" transform="translate(92 68)"/>
</clipPath>
<clipPath id="clip3_2640_76557">
<rect width="140.006" height="92" fill="white" transform="translate(91 217)"/>
</clipPath>
</defs>
</svg>
